# xmcd
#
# Track frame offsets: 
#        150
#        21616
#        40877
#        58655
#        66134
#        78882
#        96613
#        120428
#        136341
#        155029
#        169180
#        186776
#        206259
#        225541
#        247280
#        273708
#        292678
#        310850
#
# Disc length: 4405 seconds
#
# Revision: 2
# Processed by: cddbd v1.5.2PL0 Copyright (c) Steve Scherf et al.
# Submitted via: ExactAudioCopy v0.95b3
#
DISCID=06113312
DTITLE=Kool and The Gang - Still Kool
DYEAR=2007
DGENRE=
TTITLE0=Dave
TTITLE1=Steppin´Into Love
TTITLE2=America
TTITLE3=Whats Happening
TTITLE4=Is What It Is
TTITLE5=Everything´s Gonna Change
TTITLE6=Too Low For Zero
TTITLE7=Bang Bang With The Gang
TTITLE8=Made For Love
TTITLE9=Give It Up
TTITLE10=Trust Me
TTITLE11=Miracles
TTITLE12=Livin´ In The 21
TTITLE13=Sorry
TTITLE14=Someone Like You
TTITLE15=Sailing (Instrumental)
TTITLE16=Party People (Bonus Track)
TTITLE17=Medley - Celebration Ladies Night Get Down On It
EXTD=
EXTT0=
EXTT1=
EXTT2=
EXTT3=
EXTT4=
EXTT5=
EXTT6=
EXTT7=
EXTT8=
EXTT9=
EXTT10=
EXTT11=
EXTT12=
EXTT13=
EXTT14=
EXTT15=
EXTT16=
EXTT17=
PLAYORDER=
